{"accessors":[{"bufferView":2,"componentType":5126,"count":255,"max":[1,0.9385759830474854,0.9702079892158508],"min":[-1,-0.9385759830474854,-0.9702079892158508],"type":"VEC3"},{"bufferView":2,"byteOffset":3060,"componentType":5126,"count":255,"max":[0.9961807727813721,0.9875549077987671,0.9657972455024719],"min":[-0.9493118524551392,-0.993961751461029,-0.9967442154884338],"type":"VEC3"},{"bufferView":3,"componentType":5126,"count":255,"max":[0.9999861717224121,0.8071524500846863,0.9728304743766785,1],"min":[-0.8411684632301331,-0.979619562625885,-0.9975851774215698,-1],"type":"VEC4"},{"bufferView":1,"componentType":5126,"count":255,"max":[0.9075310230255127,0.9980469942092896],"min":[0.0019532099831849337,0.0019531099824234843],"type":"VEC2"},{"bufferView":0,"componentType":5125,"count":1482,"type":"SCALAR"}],"asset":{"extras":{"author":"gamesastoater (https://sketchfab.com/gamesastoater)","license":"CC-BY-4.0 (http://creativecommons.org/licenses/by/4.0/)","source":"https://sketchfab.com/3d-models/stylized-sand-stone-rock-4-f5000f45f7f14140b3258a7b6c2e1d49","title":"Stylized sand stone rock 4"},"generator":"Sketchfab-12.68.0","version":"2.0"},"bufferViews":[{"buffer":0,"byteLength":5928,"name":"floatBufferViews","target":34963},{"buffer":0,"byteLength":2040,"byteOffset":5928,"byteStride":8,"name":"floatBufferViews","target":34962},{"buffer":0,"byteLength":6120,"byteOffset":7968,"byteStride":12,"name":"floatBufferViews","target":34962},{"buffer":0,"byteLength":4080,"byteOffset":14088,"byteStride":16,"name":"floatBufferViews","target":34962}],"buffers":[{"byteLength":18168,"uri":"data:application/octet-stream;base64,"}],"images":[{"uri":"data:application/octet-stream;base64,"},{"uri":"data:application/octet-stream;base64,"},{"uri":"data:application/octet-stream;base64,"}],"materials":[{"doubleSided":true,"name":"Small_rock_4_low","normalTexture":{"index":2},"pbrMetallicRoughness":{"baseColorTexture":{"index":0},"metallicRoughnessTexture":{"index":1}}}],"meshes":[{"name":"defaultMaterial","primitives":[{"attributes":{"NORMAL":1,"POSITION":0,"TANGENT":2,"TEXCOORD_0":3},"indices":4,"material":0,"mode":4}]}],"nodes":[{"children":[1],"matrix":[1,0,0,0,0,2.220446049250313e-16,-1,0,0,1,2.220446049250313e-16,0,0,0,0,1],"name":"Sketchfab_model"},{"children":[2],"matrix":[1,0,0,0,0,-4.371139006309477e-8,0.999999999999999,0,0,-0.999999999999999,-4.371139006309477e-8,0,0,0,0,1],"name":"Collada visual scene group"},{"children":[3],"name":"Small_rock_4_low"},{"mesh":0,"name":"defaultMaterial"}],"samplers":[{"magFilter":9729,"minFilter":9987,"wrapS":10497,"wrapT":10497}],"scene":0,"scenes":[{"name":"Sketchfab_Scene","nodes":[0]}],"textures":[{"sampler":0,"source":0},{"sampler":0,"source":1},{"sampler":0,"source":2}]}